<?xml version="1.0" standalone="no"?><!DOCTYPE svg PUBLIC "-//W3C//DTD SVG 1.1//EN" "http://www.w3.org/Graphics/SVG/1.1/DTD/svg11.dtd"><svg t="1758167061482" class="icon" viewBox="0 0 1024 1024" version="1.1" xmlns="http://www.w3.org/2000/svg" p-id="2850" xmlns:xlink="http://www.w3.org/1999/xlink" width="200" height="200"><path d="M276 505.92a379.2 379.2 0 0 0-45.44 77.76c-28.64 66.4-30.4 131.52 1.28 181.92C299.84 873.76 496 872.48 672 762.72S932.32 476.16 864 368c-49.92-80-168.96-99.84-297.76-61.92" fill="#F8CB3D" p-id="2851"></path><path d="M412 392.48m-193.76 0a193.76 193.76 0 1 0 387.52 0 193.76 193.76 0 1 0-387.52 0Z" fill="#FBE417" p-id="2852"></path><path d="M664.8 720c-61.12 38.4-124.64 48-141.76 20.16s18.4-80 80-119.04 124.64-48 141.76-20.16-18.72 80.96-80 119.04z" fill="#FAAF3B" p-id="2853"></path><path d="M361.6 560c0 1.12-1.44 1.92-2.08 2.88a94.08 94.08 0 0 1-75.04 37.28 92.64 92.64 0 0 1-48-13.6 94.08 94.08 0 0 1-21.92-142.72 194.08 194.08 0 0 0 59.68 9.28 190.72 190.72 0 0 0 39.68-4A192 192 0 0 0 361.6 560z" fill="#FF6243" p-id="2854"></path><path d="M336 436.32h-0.8a6.88 6.88 0 0 1 0.8 0z" fill="#F6921E" p-id="2855"></path><path d="M423.04 431.2m-27.68 0a27.68 27.68 0 1 0 55.36 0 27.68 27.68 0 1 0-55.36 0Z" fill="" p-id="2856"></path><path d="M416.96 428.16m-9.76 0a9.76 9.76 0 1 0 19.52 0 9.76 9.76 0 1 0-19.52 0Z" fill="#FFFFFF" p-id="2857"></path><path d="M199.04 441.28a186.88 186.88 0 0 1-5.6-25.28l32-4.8a176 176 0 0 0 4.16 20.8zM384 580a185.28 185.28 0 0 1-35.04-4 206.72 206.72 0 0 1-27.2-7.2 16 16 0 1 1 10.4-30.08 141.92 141.92 0 0 0 21.12 5.6h1.44a163.52 163.52 0 0 0 112-19.68l2.56-1.44a161.12 161.12 0 0 0-30.72-288 16 16 0 0 1 10.72-30.08 193.12 193.12 0 0 1 33.6 347.84l-3.84 2.24A194.56 194.56 0 0 1 384 580z m90.4-40.8zM405.12 227.04h-1.92c-4.64 0-9.44-0.96-14.24-1.12a16 16 0 0 1 0-32c5.76 0 11.36 0 16.96 1.12a16 16 0 0 1-1.76 32zM264.96 272a16 16 0 0 1-11.68-5.28 16 16 0 0 1 0.96-22.4 193.28 193.28 0 0 1 73.6-41.92 163.36 163.36 0 0 1 17.92-4.64 16 16 0 0 1 18.88 12.48 16 16 0 0 1-12.64 18.72c-5.12 1.12-10.08 2.24-15.04 3.84a162.56 162.56 0 0 0-61.44 35.04 16 16 0 0 1-10.56 4.16zM204.16 776a16 16 0 0 1-13.6-7.52c-33.28-52.96-34.08-122.72-2.4-196.64a16 16 0 1 1 29.28 12.64c-27.52 64-27.52 123.2 0 167.04a16 16 0 0 1-4.96 21.92 16 16 0 0 1-8.32 2.56zM272 834.56a13.92 13.92 0 0 1-6.72-1.6 188.8 188.8 0 0 1-39.52-24.48A16 16 0 0 1 246.08 784a152.48 152.48 0 0 0 32.96 20.48 16 16 0 0 1-6.72 30.4zM381.12 856.16a330.72 330.72 0 0 1-51.2-3.84c-8.48-1.44-16.8-3.2-24.8-5.28a16 16 0 1 1 8-30.72c7.04 1.76 14.4 3.36 21.92 4.48 88.16 14.24 200.32-14.56 300-77.12a492.16 492.16 0 0 0 181.76-192c33.92-69.44 36.16-133.76 6.24-181.28a131.36 131.36 0 0 0-14.24-18.4A16 16 0 0 1 832 330.72a165.12 165.12 0 0 1 17.76 23.2c35.84 57.28 34.24 132.64-4.8 212.32a523.68 523.68 0 0 1-192.96 204.32 528 528 0 0 1-270.88 85.6z" fill="" p-id="2858"></path><path d="M539.04 316.48a16 16 0 0 1-4.64-32 381.6 381.6 0 0 1 208-8 16 16 0 0 1 10.88 19.84 16 16 0 0 1-19.84 10.72 349.12 349.12 0 0 0-190.24 8 16 16 0 0 1-4.16 1.44zM534.24 766.4a58.24 58.24 0 0 1-52.32-23.04c-22.56-35.84 13.76-96 84.64-140.96a336 336 0 0 1 32-17.28 16 16 0 0 1 13.6 28.8 266.56 266.56 0 0 0-28 16c-59.36 37.28-83.84 82.56-74.72 97.12s60.64 12.16 120-25.12A276 276 0 0 0 656 682.24a16 16 0 0 1 22.24 2.24 16 16 0 0 1-2.24 22.4 323.84 323.84 0 0 1-29.92 21.44 222.72 222.72 0 0 1-111.84 38.08zM702.08 672.96a16 16 0 0 1-9.44-3.2 16 16 0 0 1-3.2-22.24c13.44-18.24 19.04-35.2 13.92-43.36s-22.56-11.84-52-4.64a16 16 0 0 1-7.52-31.04c41.28-9.92 72.64-3.04 86.4 18.72s7.52 48-16 80a16 16 0 0 1-12.16 5.76zM251.52 608a109.92 109.92 0 0 1-69.92-195.2 99.2 99.2 0 0 1 20.64-12.8l13.92 28.48a80 80 0 0 0-14.4 9.44 78.24 78.24 0 1 0 112 107.52 46.88 46.88 0 0 0 4.8-7.2l27.68 16a78.4 78.4 0 0 1-7.2 10.72A109.12 109.12 0 0 1 251.52 608z" fill="" p-id="2859"></path><path d="M193.44 416a194.72 194.72 0 0 1 60.8-171.68l21.44 23.36a162.24 162.24 0 0 0-52.64 119.2 151.2 151.2 0 0 0 1.92 24.32z" fill="" p-id="2860"></path><path d="M245.92 464a108.48 108.48 0 0 1-64-20.16 16 16 0 0 1 18.4-25.92 88.48 88.48 0 0 0 18.88 9.92 80 80 0 0 0 76-13.44 16 16 0 1 1 20.16 24.48A108.96 108.96 0 0 1 245.92 464z" fill="" p-id="2861"></path><path d="M340.32 571.36H336l-3.84-2.4a114.72 114.72 0 0 1-22.08-18.08 109.76 109.76 0 0 1-14.56-131.36 16 16 0 1 1 27.36 16 77.76 77.76 0 0 0 10.4 93.12 71.84 71.84 0 0 0 16 12.64 16 16 0 0 1-7.84 29.76z" fill="" p-id="2862"></path><path d="M336.96 777.76a121.44 121.44 0 0 1-60.32-14.72 13.12 13.12 0 1 1 13.12-22.88 110.72 110.72 0 0 0 68.96 9.12 13.44 13.44 0 0 1 16 10.24 13.28 13.28 0 0 1-10.24 16 126.56 126.56 0 0 1-27.52 2.24z" fill="#FFFFFF" p-id="2863"></path><path d="M397.28 757.92m-14.24 0a14.24 14.24 0 1 0 28.48 0 14.24 14.24 0 1 0-28.48 0Z" fill="#FFFFFF" p-id="2864"></path></svg>